<mxfile host="app.diagrams.net" agent="Mozilla/5.0 (Macintosh; Intel Mac OS X 10_15_7) AppleWebKit/537.36 (KHTML, like Gecko) Chrome/128.0.0.0 Safari/537.36" version="24.7.12">
  <diagram name="Page-1" id="SkIw-aBx2mrivpcrKjMx">
    <mxGraphModel dx="3690" dy="1020" grid="1" gridSize="10" guides="1" tooltips="1" connect="1" arrows="1" fold="1" page="1" pageScale="1" pageWidth="850" pageHeight="1100" math="0" shadow="0">
      <root>
        <mxCell id="0" />
        <mxCell id="1" parent="0" />
        <mxCell id="ydM9zurLtS493Jx7LSxX-6" value="" style="rounded=0;whiteSpace=wrap;html=1;fillColor=#E6FFCC;shadow=1;" vertex="1" parent="1">
          <mxGeometry x="-1110.5" y="540" width="250.5" height="550" as="geometry" />
        </mxCell>
        <mxCell id="tbRuKrCdg89E3t7HUOhH-56" value="" style="rounded=0;whiteSpace=wrap;html=1;fillColor=#E6FFCC;" parent="1" vertex="1">
          <mxGeometry x="-819.5" y="540" width="279.5" height="550" as="geometry" />
        </mxCell>
        <mxCell id="tbRuKrCdg89E3t7HUOhH-54" style="edgeStyle=orthogonalEdgeStyle;rounded=0;orthogonalLoop=1;jettySize=auto;html=1;entryX=0.5;entryY=0;entryDx=0;entryDy=0;" parent="1" source="tbRuKrCdg89E3t7HUOhH-46" target="tbRuKrCdg89E3t7HUOhH-2" edge="1">
          <mxGeometry relative="1" as="geometry" />
        </mxCell>
        <mxCell id="tbRuKrCdg89E3t7HUOhH-46" value="" style="rounded=0;whiteSpace=wrap;html=1;fillColor=#E6FFCC;" parent="1" vertex="1">
          <mxGeometry x="-1010" y="20" width="340" height="140" as="geometry" />
        </mxCell>
        <mxCell id="tbRuKrCdg89E3t7HUOhH-1" style="edgeStyle=orthogonalEdgeStyle;rounded=0;orthogonalLoop=1;jettySize=auto;html=1;entryX=0.5;entryY=0;entryDx=0;entryDy=0;" parent="1" source="tbRuKrCdg89E3t7HUOhH-2" target="tbRuKrCdg89E3t7HUOhH-20" edge="1">
          <mxGeometry relative="1" as="geometry" />
        </mxCell>
        <mxCell id="tbRuKrCdg89E3t7HUOhH-2" value="" style="rounded=0;whiteSpace=wrap;html=1;fillColor=#E6FFCC;" parent="1" vertex="1">
          <mxGeometry x="-1095" y="206" width="510" height="200" as="geometry" />
        </mxCell>
        <mxCell id="tbRuKrCdg89E3t7HUOhH-4" value="&lt;font style=&quot;font-size: 18px;&quot;&gt;Energy demand data&lt;/font&gt;" style="whiteSpace=wrap;html=1;shape=mxgraph.basic.document;fillColor=#FFE6CC;" parent="1" vertex="1">
          <mxGeometry x="-825" y="30" width="106.5" height="120" as="geometry" />
        </mxCell>
        <mxCell id="tbRuKrCdg89E3t7HUOhH-6" value="&lt;font style=&quot;font-size: 18px;&quot;&gt;Weather data&lt;/font&gt;" style="whiteSpace=wrap;html=1;shape=mxgraph.basic.document;fillColor=#FFE6CC;" parent="1" vertex="1">
          <mxGeometry x="-960" y="30" width="106.5" height="120" as="geometry" />
        </mxCell>
        <mxCell id="tbRuKrCdg89E3t7HUOhH-7" style="edgeStyle=orthogonalEdgeStyle;rounded=0;orthogonalLoop=1;jettySize=auto;html=1;entryX=0;entryY=0.5;entryDx=0;entryDy=0;" parent="1" source="tbRuKrCdg89E3t7HUOhH-8" target="tbRuKrCdg89E3t7HUOhH-10" edge="1">
          <mxGeometry relative="1" as="geometry" />
        </mxCell>
        <mxCell id="tbRuKrCdg89E3t7HUOhH-8" value="&lt;font style=&quot;font-size: 18px;&quot;&gt;Data Compilation&lt;/font&gt;" style="rounded=1;whiteSpace=wrap;html=1;fillColor=#D6E9FF;" parent="1" vertex="1">
          <mxGeometry x="-990" y="220" width="120" height="60" as="geometry" />
        </mxCell>
        <mxCell id="tbRuKrCdg89E3t7HUOhH-53" style="edgeStyle=orthogonalEdgeStyle;rounded=0;orthogonalLoop=1;jettySize=auto;html=1;entryX=0.5;entryY=0;entryDx=0;entryDy=0;" parent="1" source="tbRuKrCdg89E3t7HUOhH-10" target="tbRuKrCdg89E3t7HUOhH-14" edge="1">
          <mxGeometry relative="1" as="geometry">
            <Array as="points">
              <mxPoint x="-750" y="300" />
              <mxPoint x="-1020" y="300" />
            </Array>
          </mxGeometry>
        </mxCell>
        <mxCell id="tbRuKrCdg89E3t7HUOhH-10" value="&lt;font style=&quot;font-size: 18px;&quot;&gt;Data cleaning&lt;/font&gt;" style="rounded=1;whiteSpace=wrap;html=1;fillColor=#D6E9FF;" parent="1" vertex="1">
          <mxGeometry x="-810" y="220" width="120" height="60" as="geometry" />
        </mxCell>
        <mxCell id="tbRuKrCdg89E3t7HUOhH-13" style="edgeStyle=orthogonalEdgeStyle;rounded=0;orthogonalLoop=1;jettySize=auto;html=1;entryX=0;entryY=0.5;entryDx=0;entryDy=0;" parent="1" source="tbRuKrCdg89E3t7HUOhH-14" target="tbRuKrCdg89E3t7HUOhH-17" edge="1">
          <mxGeometry relative="1" as="geometry" />
        </mxCell>
        <mxCell id="tbRuKrCdg89E3t7HUOhH-14" value="&lt;font style=&quot;font-size: 18px;&quot;&gt;Data Aggregation&lt;/font&gt;" style="rounded=1;whiteSpace=wrap;html=1;fillColor=#D6E9FF;" parent="1" vertex="1">
          <mxGeometry x="-1080" y="330" width="120" height="60" as="geometry" />
        </mxCell>
        <mxCell id="tbRuKrCdg89E3t7HUOhH-16" style="edgeStyle=orthogonalEdgeStyle;rounded=0;orthogonalLoop=1;jettySize=auto;html=1;entryX=0;entryY=0.5;entryDx=0;entryDy=0;" parent="1" source="tbRuKrCdg89E3t7HUOhH-17" target="tbRuKrCdg89E3t7HUOhH-19" edge="1">
          <mxGeometry relative="1" as="geometry" />
        </mxCell>
        <mxCell id="tbRuKrCdg89E3t7HUOhH-17" value="&lt;font style=&quot;font-size: 18px;&quot;&gt;Feature Engineering&lt;/font&gt;" style="rounded=1;whiteSpace=wrap;html=1;fillColor=#D6E9FF;" parent="1" vertex="1">
          <mxGeometry x="-900" y="330" width="120" height="60" as="geometry" />
        </mxCell>
        <mxCell id="tbRuKrCdg89E3t7HUOhH-19" value="&lt;font style=&quot;font-size: 18px;&quot;&gt;Feature Selection&lt;/font&gt;" style="rounded=1;whiteSpace=wrap;html=1;fillColor=#D6E9FF;" parent="1" vertex="1">
          <mxGeometry x="-720" y="330" width="120" height="60" as="geometry" />
        </mxCell>
        <mxCell id="tbRuKrCdg89E3t7HUOhH-20" value="&lt;font style=&quot;font-size: 18px;&quot;&gt;Train-test Splitting&lt;/font&gt;" style="rounded=1;whiteSpace=wrap;html=1;fillColor=#D6E9FF;" parent="1" vertex="1">
          <mxGeometry x="-900" y="432" width="120" height="60" as="geometry" />
        </mxCell>
        <mxCell id="tbRuKrCdg89E3t7HUOhH-58" style="edgeStyle=orthogonalEdgeStyle;rounded=0;orthogonalLoop=1;jettySize=auto;html=1;" parent="1" source="tbRuKrCdg89E3t7HUOhH-22" target="tbRuKrCdg89E3t7HUOhH-42" edge="1">
          <mxGeometry relative="1" as="geometry" />
        </mxCell>
        <mxCell id="tbRuKrCdg89E3t7HUOhH-22" value="&lt;font style=&quot;font-size: 18px;&quot;&gt;Testing Data&lt;/font&gt;" style="shape=cylinder3;whiteSpace=wrap;html=1;boundedLbl=1;backgroundOutline=1;size=6.999999999999943;fillColor=#FFE6CC;" parent="1" vertex="1">
          <mxGeometry x="-1025.5" y="570" width="80" height="80" as="geometry" />
        </mxCell>
        <mxCell id="tbRuKrCdg89E3t7HUOhH-23" style="edgeStyle=orthogonalEdgeStyle;rounded=0;orthogonalLoop=1;jettySize=auto;html=1;entryX=0.5;entryY=0;entryDx=0;entryDy=0;" parent="1" source="tbRuKrCdg89E3t7HUOhH-24" target="tbRuKrCdg89E3t7HUOhH-27" edge="1">
          <mxGeometry relative="1" as="geometry" />
        </mxCell>
        <mxCell id="tbRuKrCdg89E3t7HUOhH-24" value="&lt;font style=&quot;font-size: 18px;&quot;&gt;Training Data&lt;/font&gt;" style="shape=cylinder3;whiteSpace=wrap;html=1;boundedLbl=1;backgroundOutline=1;size=6.999999999999943;fillColor=#FFE6CC;" parent="1" vertex="1">
          <mxGeometry x="-719" y="570" width="80" height="80" as="geometry" />
        </mxCell>
        <mxCell id="tbRuKrCdg89E3t7HUOhH-27" value="" style="rounded=0;whiteSpace=wrap;html=1;" parent="1" vertex="1">
          <mxGeometry x="-806.75" y="680" width="255.75" height="400" as="geometry" />
        </mxCell>
        <mxCell id="tbRuKrCdg89E3t7HUOhH-44" style="edgeStyle=orthogonalEdgeStyle;rounded=0;orthogonalLoop=1;jettySize=auto;html=1;" parent="1" source="tbRuKrCdg89E3t7HUOhH-29" target="tbRuKrCdg89E3t7HUOhH-33" edge="1">
          <mxGeometry relative="1" as="geometry" />
        </mxCell>
        <mxCell id="tbRuKrCdg89E3t7HUOhH-29" value="&lt;font style=&quot;font-size: 18px;&quot;&gt;Candidate Model Initiation&lt;/font&gt;" style="rounded=1;whiteSpace=wrap;html=1;fillColor=#D6E9FF;" parent="1" vertex="1">
          <mxGeometry x="-761.44" y="693" width="157.13" height="70" as="geometry" />
        </mxCell>
        <mxCell id="ydM9zurLtS493Jx7LSxX-9" style="edgeStyle=orthogonalEdgeStyle;rounded=0;orthogonalLoop=1;jettySize=auto;html=1;entryX=0.5;entryY=0;entryDx=0;entryDy=0;" edge="1" parent="1" source="tbRuKrCdg89E3t7HUOhH-33" target="tbRuKrCdg89E3t7HUOhH-36">
          <mxGeometry relative="1" as="geometry" />
        </mxCell>
        <mxCell id="tbRuKrCdg89E3t7HUOhH-33" value="&lt;font style=&quot;font-size: 18px;&quot;&gt;Model Training&lt;/font&gt;" style="rounded=1;whiteSpace=wrap;html=1;fillColor=#D6E9FF;" parent="1" vertex="1">
          <mxGeometry x="-743.26" y="789" width="120" height="60" as="geometry" />
        </mxCell>
        <mxCell id="tbRuKrCdg89E3t7HUOhH-35" style="edgeStyle=orthogonalEdgeStyle;rounded=0;orthogonalLoop=1;jettySize=auto;html=1;entryX=0.5;entryY=0;entryDx=0;entryDy=0;" parent="1" source="tbRuKrCdg89E3t7HUOhH-36" target="tbRuKrCdg89E3t7HUOhH-38" edge="1">
          <mxGeometry relative="1" as="geometry" />
        </mxCell>
        <mxCell id="ydM9zurLtS493Jx7LSxX-7" style="edgeStyle=orthogonalEdgeStyle;rounded=0;orthogonalLoop=1;jettySize=auto;html=1;entryX=1;entryY=0.5;entryDx=0;entryDy=0;" edge="1" parent="1" source="tbRuKrCdg89E3t7HUOhH-36" target="tbRuKrCdg89E3t7HUOhH-29">
          <mxGeometry relative="1" as="geometry">
            <Array as="points">
              <mxPoint x="-580" y="927" />
              <mxPoint x="-580" y="728" />
            </Array>
          </mxGeometry>
        </mxCell>
        <mxCell id="tbRuKrCdg89E3t7HUOhH-36" value="&lt;font style=&quot;font-size: 16px;&quot;&gt;Top Performing Models&lt;/font&gt;" style="shape=datastore;whiteSpace=wrap;html=1;fillColor=#FFD9FC;" parent="1" vertex="1">
          <mxGeometry x="-752.13" y="879.83" width="137.75" height="80.17" as="geometry" />
        </mxCell>
        <mxCell id="tbRuKrCdg89E3t7HUOhH-37" value="&lt;font style=&quot;font-size: 16px;&quot;&gt;10 epochs&lt;/font&gt;" style="text;html=1;align=center;verticalAlign=middle;whiteSpace=wrap;rounded=0;" parent="1" vertex="1">
          <mxGeometry x="-616.5" y="935" width="57.5" height="30" as="geometry" />
        </mxCell>
        <mxCell id="ydM9zurLtS493Jx7LSxX-2" style="edgeStyle=orthogonalEdgeStyle;rounded=0;orthogonalLoop=1;jettySize=auto;html=1;entryX=1;entryY=0.5;entryDx=0;entryDy=0;" edge="1" parent="1" source="tbRuKrCdg89E3t7HUOhH-38" target="tbRuKrCdg89E3t7HUOhH-42">
          <mxGeometry relative="1" as="geometry">
            <Array as="points">
              <mxPoint x="-840" y="1032" />
              <mxPoint x="-840" y="725" />
            </Array>
          </mxGeometry>
        </mxCell>
        <mxCell id="tbRuKrCdg89E3t7HUOhH-38" value="&lt;font style=&quot;font-size: 18px;&quot;&gt;Best Model&lt;/font&gt;" style="shape=datastore;whiteSpace=wrap;html=1;fillColor=#FFD9FC;" parent="1" vertex="1">
          <mxGeometry x="-748" y="996" width="130" height="70" as="geometry" />
        </mxCell>
        <mxCell id="tbRuKrCdg89E3t7HUOhH-39" value="&lt;font style=&quot;font-size: 16px;&quot;&gt;After 10 epochs&lt;/font&gt;" style="text;html=1;align=center;verticalAlign=middle;whiteSpace=wrap;rounded=0;" parent="1" vertex="1">
          <mxGeometry x="-803.75" y="962" width="120.5" height="30" as="geometry" />
        </mxCell>
        <mxCell id="tbRuKrCdg89E3t7HUOhH-40" value="&lt;font style=&quot;font-size: 14px;&quot;&gt;Feyn QLattice Model&lt;/font&gt;" style="text;html=1;align=center;verticalAlign=middle;whiteSpace=wrap;rounded=0;" parent="1" vertex="1">
          <mxGeometry x="-647.87" y="644" width="115.5" height="30" as="geometry" />
        </mxCell>
        <mxCell id="tbRuKrCdg89E3t7HUOhH-41" style="edgeStyle=orthogonalEdgeStyle;rounded=0;orthogonalLoop=1;jettySize=auto;html=1;entryX=0.5;entryY=0;entryDx=0;entryDy=0;" parent="1" source="tbRuKrCdg89E3t7HUOhH-42" target="tbRuKrCdg89E3t7HUOhH-43" edge="1">
          <mxGeometry relative="1" as="geometry" />
        </mxCell>
        <mxCell id="tbRuKrCdg89E3t7HUOhH-42" value="&lt;font style=&quot;font-size: 18px;&quot;&gt;Model&lt;/font&gt;" style="rhombus;whiteSpace=wrap;html=1;fillColor=#FFD9FC;" parent="1" vertex="1">
          <mxGeometry x="-1040.5" y="682.0000000000001" width="110" height="86.43" as="geometry" />
        </mxCell>
        <mxCell id="ydM9zurLtS493Jx7LSxX-13" style="edgeStyle=orthogonalEdgeStyle;rounded=0;orthogonalLoop=1;jettySize=auto;html=1;" edge="1" parent="1" source="tbRuKrCdg89E3t7HUOhH-43" target="ydM9zurLtS493Jx7LSxX-11">
          <mxGeometry relative="1" as="geometry" />
        </mxCell>
        <mxCell id="ydM9zurLtS493Jx7LSxX-14" style="edgeStyle=orthogonalEdgeStyle;rounded=0;orthogonalLoop=1;jettySize=auto;html=1;entryX=1;entryY=0.5;entryDx=0;entryDy=0;" edge="1" parent="1" source="tbRuKrCdg89E3t7HUOhH-43" target="ydM9zurLtS493Jx7LSxX-12">
          <mxGeometry relative="1" as="geometry">
            <Array as="points">
              <mxPoint x="-890" y="830" />
              <mxPoint x="-890" y="1010" />
            </Array>
          </mxGeometry>
        </mxCell>
        <mxCell id="tbRuKrCdg89E3t7HUOhH-43" value="&lt;font style=&quot;font-size: 18px;&quot;&gt;Predictions&lt;/font&gt;" style="rounded=1;whiteSpace=wrap;html=1;fillColor=#B5FAFF;" parent="1" vertex="1">
          <mxGeometry x="-1045.5" y="800" width="120" height="60" as="geometry" />
        </mxCell>
        <mxCell id="tbRuKrCdg89E3t7HUOhH-50" value="&lt;font style=&quot;font-size: 18px;&quot;&gt;Data Preprocessing Pipeline&lt;/font&gt;" style="text;html=1;align=center;verticalAlign=middle;whiteSpace=wrap;rounded=0;" parent="1" vertex="1">
          <mxGeometry x="-825" y="173" width="233.5" height="30" as="geometry" />
        </mxCell>
        <mxCell id="tbRuKrCdg89E3t7HUOhH-59" value="&lt;font style=&quot;font-size: 18px;&quot;&gt;Training Pipeline&lt;/font&gt;" style="text;html=1;align=center;verticalAlign=middle;whiteSpace=wrap;rounded=0;" parent="1" vertex="1">
          <mxGeometry x="-663.87" y="495" width="115" height="30" as="geometry" />
        </mxCell>
        <mxCell id="tbRuKrCdg89E3t7HUOhH-60" value="&lt;font style=&quot;font-size: 18px;&quot;&gt;&lt;font style=&quot;&quot;&gt;Testing &lt;/font&gt;&lt;font style=&quot;&quot;&gt;Pipeline&lt;/font&gt;&lt;/font&gt;" style="text;html=1;align=center;verticalAlign=middle;whiteSpace=wrap;rounded=0;" parent="1" vertex="1">
          <mxGeometry x="-1110.5" y="495" width="115" height="30" as="geometry" />
        </mxCell>
        <mxCell id="ydM9zurLtS493Jx7LSxX-4" style="edgeStyle=orthogonalEdgeStyle;rounded=0;orthogonalLoop=1;jettySize=auto;html=1;entryX=0.5;entryY=0;entryDx=0;entryDy=0;entryPerimeter=0;" edge="1" parent="1" source="tbRuKrCdg89E3t7HUOhH-20" target="tbRuKrCdg89E3t7HUOhH-22">
          <mxGeometry relative="1" as="geometry">
            <Array as="points">
              <mxPoint x="-840" y="510" />
              <mxPoint x="-985" y="510" />
            </Array>
          </mxGeometry>
        </mxCell>
        <mxCell id="ydM9zurLtS493Jx7LSxX-5" style="edgeStyle=orthogonalEdgeStyle;rounded=0;orthogonalLoop=1;jettySize=auto;html=1;entryX=0.5;entryY=0;entryDx=0;entryDy=0;entryPerimeter=0;" edge="1" parent="1" source="tbRuKrCdg89E3t7HUOhH-20" target="tbRuKrCdg89E3t7HUOhH-24">
          <mxGeometry relative="1" as="geometry">
            <Array as="points">
              <mxPoint x="-840" y="510" />
              <mxPoint x="-679" y="510" />
            </Array>
          </mxGeometry>
        </mxCell>
        <mxCell id="ydM9zurLtS493Jx7LSxX-15" style="edgeStyle=orthogonalEdgeStyle;rounded=0;orthogonalLoop=1;jettySize=auto;html=1;entryX=0.5;entryY=0;entryDx=0;entryDy=0;" edge="1" parent="1" source="ydM9zurLtS493Jx7LSxX-11" target="ydM9zurLtS493Jx7LSxX-12">
          <mxGeometry relative="1" as="geometry" />
        </mxCell>
        <mxCell id="ydM9zurLtS493Jx7LSxX-11" value="&lt;font style=&quot;font-size: 18px;&quot;&gt;Explainable Model&lt;/font&gt;" style="rounded=1;whiteSpace=wrap;html=1;fillColor=#D6E9FF;" vertex="1" parent="1">
          <mxGeometry x="-1045.25" y="889.91" width="120" height="60" as="geometry" />
        </mxCell>
        <mxCell id="ydM9zurLtS493Jx7LSxX-12" value="&lt;font style=&quot;font-size: 18px;&quot;&gt;Outputs &amp;amp; Predictions&lt;/font&gt;" style="rounded=1;whiteSpace=wrap;html=1;fillColor=#FFFFFF;arcSize=0;" vertex="1" parent="1">
          <mxGeometry x="-1045.5" y="980" width="120" height="60" as="geometry" />
        </mxCell>
      </root>
    </mxGraphModel>
  </diagram>
</mxfile>
